<svg id="Capa_1" enable-background="new 0 0 453.943 453.943" height="512" viewBox="0 0 453.943 453.943" width="512" xmlns="http://www.w3.org/2000/svg"><g><g><circle cx="226.971" cy="265.239" fill="#bd72bf" r="184.75"/></g><g><path d="m411.737 265.227c-.034 102.056-82.795 184.761-184.851 184.727-68.514-.023-131.392-37.952-163.368-98.547 76.641 67.362 193.379 59.839 260.74-16.802 50.585-57.553 60.395-140.357 24.658-208.136 39.996 35.01 62.902 85.604 62.821 138.758z" fill="#a25fa7"/></g><g><path d="m226.971 453.943c-104.051 0-188.703-84.652-188.703-188.703s84.652-188.703 188.703-188.703 188.703 84.652 188.703 188.703-84.651 188.703-188.703 188.703zm0-369.5c-99.691 0-180.797 81.105-180.797 180.796s81.105 180.797 180.797 180.797 180.797-81.106 180.797-180.797-81.105-180.796-180.797-180.796z" fill="#2f3a5a"/></g><g><path d="m226.979 53.319c-28.858 0-52.246 19.308-52.246 43.13s23.387 19.837 52.246 19.837 52.246 3.973 52.246-19.845-23.387-43.122-52.246-43.122z" fill="#65b54e"/></g><g><path d="m206.751 120.487c-12.803 0-23.565-1.035-30.022-7.374-4.003-3.93-5.949-9.381-5.949-16.664 0-25.962 25.21-47.083 56.199-47.083s56.199 21.118 56.199 47.075c0 7.282-1.946 12.734-5.95 16.665-7.984 7.84-22.553 7.572-39.418 7.264-3.504-.064-7.128-.13-10.83-.13-3.711 0-7.342.067-10.853.131-3.22.059-6.355.116-9.376.116zm20.228-63.215c-26.628 0-48.292 17.575-48.292 39.177 0 5.051 1.172 8.656 3.582 11.022 5.612 5.51 18.633 5.271 33.712 4.994 3.547-.065 7.215-.133 10.999-.133 3.775 0 7.435.067 10.975.132 15.091.277 28.118.514 33.735-5 2.411-2.367 3.583-5.973 3.583-11.023-.002-21.598-21.665-39.169-48.294-39.169z" fill="#2f3a5a"/></g><g><path d="m268.844 4.872c-3.182-1.44-6.879-1.16-9.808.743-15.56 10.215-39.848 29.981-43.165 69.952-1.107 13.346-2.095 26.688-2.119 40.082l21.711 9.721c.024-13.394 1.012-26.732 2.119-40.082 1.612-24.835 13.825-47.778 33.527-62.983 4.435-3.543 5.158-10.011 1.615-14.446-1.034-1.293-2.365-2.318-3.88-2.987z" fill="#65b54e"/><path d="m235.463 129.324c-.549 0-1.099-.114-1.616-.345l-21.711-9.721c-1.425-.638-2.34-2.054-2.338-3.615.025-13.853 1.067-27.555 2.132-40.402 3.811-45.933 34.763-66.253 44.935-72.93 4.09-2.657 9.165-3.046 13.592-1.047 2.083.923 3.934 2.35 5.355 4.129 4.898 6.132 3.894 15.104-2.237 20.002-18.848 14.548-30.511 36.456-32.049 60.15-1.057 12.76-2.087 26.282-2.11 39.832-.002 1.339-.682 2.586-1.807 3.313-.649.42-1.396.634-2.146.634zm-17.742-16.229 13.861 6.206c.257-11.772 1.149-23.368 2.06-34.339 1.679-25.889 14.457-49.892 35.052-65.785 2.672-2.136 3.118-6.124.942-8.849-.633-.792-1.459-1.428-2.389-1.839-.012-.005-.022-.01-.034-.015-1.965-.889-4.217-.718-6.023.457-9.359 6.144-37.887 24.873-41.379 66.964-.987 11.886-1.953 24.505-2.09 37.2z" fill="#2f3a5a"/></g><g><path d="m149.496 76.857c-29.191 5.036-52.858 28.412-52.858 52.234s23.668 21.304 52.866 16.275 52.866-10.674 52.866-34.48-23.672-39.058-52.874-34.029z" fill="#65b54e"/></g><g><path d="m201.129 119.543c-5.25 16.675-26.396 21.49-51.629 25.834-29.183 5.025-52.878 7.511-52.878-16.295 0-16.034 10.733-31.871 26.625-42.003-5.114 7.116-7.954 15.614-8.144 24.376 0 23.846 23.7 21.32 52.882 16.291 11.309-1.543 22.421-4.293 33.144-8.203z" fill="#5da047"/></g><g><path d="m120.606 152.656c-8.629 0-15.815-1.524-20.845-5.76-4.696-3.957-7.077-9.947-7.077-17.805 0-25.609 25.184-50.789 56.139-56.13h.001c17.251-2.97 33.45.64 44.446 9.905 8.417 7.091 13.052 17.042 13.052 28.02 0 28.706-31.133 34.068-56.149 38.375-10.823 1.865-20.919 3.395-29.567 3.395zm29.562-71.904c-27.337 4.717-49.577 26.401-49.577 48.338 0 5.495 1.395 9.341 4.265 11.759 7.458 6.283 25.057 3.879 43.977.621 29.033-5 49.584-10.12 49.584-30.584 0-8.731-3.541-16.33-10.24-21.974-9.21-7.76-23.064-10.732-38.01-8.16z" fill="#2f3a5a"/></g><g><path d="m310.957 79.829c-28.633-4.281-51.823 11.551-51.823 35.377s23.201 29.704 51.823 33.998c28.621 4.293 51.823 5.341 51.823-18.481s-23.201-46.612-51.823-50.894z" fill="#65b54e"/></g><g><path d="m362.768 130.703c0 23.846-23.186 22.763-51.787 18.485-23.367-3.495-43.134-8.045-49.601-22.585 9.213 2.873 18.662 4.921 28.238 6.12 28.605 4.281 51.835 5.368 51.835-18.477-.3-10.521-4.299-20.599-11.294-28.463 19.125 9.203 32.609 26.763 32.609 44.92z" fill="#5da047"/></g><g><path d="m336.023 155.575c-8.02 0-16.879-1.145-25.652-2.461-27.924-4.189-55.189-10.566-55.189-37.907 0-11.147 4.674-21.314 13.161-28.626 10.762-9.271 26.51-13.158 43.2-10.661 30.432 4.553 55.191 29.137 55.191 54.804 0 8.057-2.452 14.253-7.288 18.418-5.608 4.827-13.928 6.433-23.423 6.433zm-34.309-72.491c-11.049 0-21.031 3.301-28.211 9.487-6.813 5.871-10.415 13.698-10.415 22.636 0 19.183 17.03 25.374 48.456 30.088 16.586 2.488 34.934 4.579 42.741-2.146 3.056-2.631 4.541-6.696 4.541-12.427 0-21.911-21.736-42.987-48.454-46.984-2.935-.438-5.832-.654-8.658-.654z" fill="#2f3a5a"/></g><g><path d="m223.627 90.985c-28.858 0-52.246 19.308-52.246 43.13s23.391 26.7 52.246 26.7 52.246-2.878 52.246-26.7-23.396-43.13-52.246-43.13z" fill="#65b54e"/></g><g><path d="m275.857 134.115c0 23.846-23.375 26.688-52.214 26.688-27.234 0-49.55-2.538-52.028-22.782 9.551 4.349 23.371 5.195 38.742 5.195 28.886 0 52.258-2.882 52.258-26.688-.001-4.526-.842-9.012-2.479-13.231 9.664 7.337 15.453 18.685 15.721 30.818z" fill="#5da047"/></g><g><path d="m223.627 164.768c-21.019 0-56.199 0-56.199-30.653 0-25.962 25.21-47.083 56.199-47.083s56.199 21.121 56.199 47.083c0 30.653-35.181 30.653-56.199 30.653zm0-69.83c-26.628 0-48.292 17.575-48.292 39.177 0 19.025 17.707 22.747 48.292 22.747s48.293-3.722 48.293-22.747c-.001-21.602-21.665-39.177-48.293-39.177z" fill="#2f3a5a"/></g></g></svg>