<svg id="Layer_1" enable-background="new 0 0 512 512" height="512" viewBox="0 0 512 512" width="512" xmlns="http://www.w3.org/2000/svg"><g><path d="m426.381 402.435c-.371-.184-38.665-20.496-75.503-68.247-22.922-29.712-40.572-63.83-52.462-101.405-16.749-54.667-12.945-98.335-11.368-150.509 1.444-47.757-18.93-82.274-57.312-82.274-34.818 0-57.824 24.332-63.922 76.67-25.534 219.139 70.84 354.662 209.342 429.361 27.342 13.915 63.333 2.812 77.338-26.15 14.144-28.607 2.454-63.281-26.113-77.446z" fill="#64cc56"/><path d="m426.381 402.435c-.371-.184-38.665-20.496-75.503-68.247-22.922-29.712-40.572-63.83-52.462-101.406-16.749-54.667-12.945-98.335-11.368-150.509 1.443-47.756-18.93-82.273-57.312-82.273-5.66 0-11.001.655-16.015 1.956 28.697 7.891 43.654 39.182 42.411 80.317-1.577 52.174-5.381 95.842 11.368 150.509 11.889 37.576 29.539 71.694 52.462 101.406 36.838 47.751 75.132 68.064 75.503 68.247 28.567 14.165 40.258 48.84 26.113 77.447-7.467 15.442-21.186 25.803-36.51 30.006 25.558 7.201 55.061-4.435 67.426-30.006 14.144-28.608 2.454-63.282-26.113-77.447z" fill="#5bbd4f"/><path d="m433.8 501.62c-5.22 3.6-10.99 6.3-17.03 8.04-254.13-136.15-230.44-405.07-211.45-504.77 4.99-2.25 10.39-3.71 16.16-4.4-18.7 91.41-50.06 368.06 212.32 501.13z" fill="#9ed643"/><path d="m454.95 474.13c-.7 1.94-1.52 3.86-2.46 5.75-1.3 2.68-2.78 5.21-4.44 7.58-54.87-31.37-99.69-71.81-133.27-120.27-28.97-41.82-49.89-90.02-62.16-143.26-20.92-90.8-12.23-175.41-4.36-220.85 5.12 1.83 9.76 4.46 13.9 7.8-14.32 88.44-30.96 334.91 192.79 463.25z" fill="#9ed643"/><path d="m318.175 402.435c-.371-.184-38.665-20.496-75.503-68.247-22.922-29.712-40.572-63.83-52.462-101.405-16.749-54.667-12.945-98.335-11.368-150.509 1.443-47.757-18.93-82.274-57.312-82.274-34.818 0-57.824 24.332-63.922 76.67-25.534 219.139 70.84 354.662 209.342 429.361 27.342 13.915 63.333 2.812 77.338-26.15 14.144-28.607 2.454-63.281-26.113-77.446z" fill="#5bbd4f"/><path d="m318.175 402.435c-.371-.184-38.665-20.496-75.503-68.247-22.922-29.712-40.572-63.83-52.462-101.406-16.749-54.667-12.945-98.335-11.368-150.509 1.443-47.756-18.93-82.273-57.312-82.273-5.66 0-11.001.655-16.015 1.956 28.697 7.891 43.654 39.182 42.411 80.317-1.577 52.174-5.381 95.842 11.368 150.509 11.889 37.576 29.539 71.694 52.462 101.406 36.838 47.751 75.132 68.064 75.503 68.247 28.567 14.165 40.258 48.84 26.113 77.447-7.467 15.442-21.186 25.803-36.51 30.006 25.558 7.201 55.061-4.435 67.426-30.006 14.144-28.608 2.454-63.282-26.113-77.447z" fill="#50a645"/><g fill="#9ed643"><path d="m333.23 495.3c-4.08 4.03-8.71 7.37-13.7 9.96-260.44-131.29-240.41-401.71-221.82-500.64 4.97-2.16 10.35-3.55 16.09-4.19-18.36 90.21-45.62 366.35 219.43 494.87z"/><path d="m348.86 467.04c-.99 4.35-2.51 8.66-4.57 12.84-.22.46-.45.92-.69 1.37-57.53-31.06-104.28-71.84-138.98-121.23-29.47-41.94-50.54-90.45-62.63-144.19-19.63-87.25-11.56-167.85-3.58-213.31 5.13 1.64 9.8 4.05 14 7.15-15.16 91.48-30.41 333.51 196.45 457.37z"/></g></g></svg>