<svg id="filled_outline" height="512" viewBox="0 0 512 512" width="512" xmlns="http://www.w3.org/2000/svg" data-name="filled outline"><path d="m168 24h16a0 0 0 0 1 0 0v40a48 48 0 0 1 -48 48h-16a0 0 0 0 1 0 0v-40a48 48 0 0 1 48-48z" fill="#acc221"/><path d="m64 88h40a0 0 0 0 1 0 0v16a40 40 0 0 1 -40 40h-40a0 0 0 0 1 0 0v-16a40 40 0 0 1 40-40z" fill="#acc221"/><path d="m134.4 112-26.7479-44.57983a40 40 0 0 0 -34.29972-19.42017h-41.35238l14.26685 38.04494a40 40 0 0 0 37.45315 25.95506z" fill="#b9cd2a"/><path d="m140.72791 166.76326 11.27226-6.76336a126.1 126.1 0 0 0 54.751-68.25353l6.01254-18.03762a14.19881 14.19881 0 0 1 13.47021-9.70875 13.76605 13.76605 0 0 1 13.76608 13.76606 13.76616 13.76616 0 0 1 -.70643 4.35321l-10.64452 31.93357a128.05 128.05 0 0 1 -44.64889 61.947l-8.00016 6.00016z" fill="#b1712c"/><path d="m200 152 24 8 16-8v16h16v16l16 8-8 24 16 8-8 24 16 8-8 16 16 16-8 16 8 16-8 16 8 16-8 16 8 24-16 8 8 16-16 8v16l-16 8v16h-16l-8 16-16-8-16 16-8-16-16 16-16-16-8 16-16-8-16 8-16-16-16 8-8-16h-16v-16l-16-8v-16l-16-8 8-16-16-8 8-24-8-16 8-16-8-16 8-16-8-16 16-16-8-16 16-8-8-24 16-8 8-16h16v-24h16l16-16 16 8 16-8 16 8 16-8 16 8z" fill="#b9cd2a"/><path d="m480 368-16 8 8 24-16 8-8 24h-16l-8 16h-24l-8 16h-16l-8 16-24-8-16 16-16-16-24 8-8-16h-16l-8-16h-24l-8-16h-16l-8-24-16-8 8-24-16-8 8-16-16-16 80-32 32 16h96l32-16 80 32-16 16z" fill="#cde046"/><path d="m318.719 364.802-30.719 51.198 16 24h48l16-24-30.719-51.198z" fill="#ffc431"/><path d="m297.473 348.843-57.473 19.157-8 32 24 24 32-8 27.871-46.451z" fill="#ffb401"/><path d="m297.47 320v28.84l-57.47 19.16-24-8-14.9-37.24 46.9-18.76 32 16z" fill="#ffc431"/><path d="m358.528 348.843 57.472 19.157 8 32-24 24-32-8-30.719-51.198z" fill="#ffb401"/><path d="m454.9 322.76-14.9 37.24-24 8-57.47-19.16v-28.84h17.47l32-16z" fill="#ffc431"/><path d="m280 320 7.20893 25.23126a42.42332 42.42332 0 0 0 40.79107 30.76874 42.42332 42.42332 0 0 0 40.791-30.76874l7.209-25.23126z" fill="#ffd873"/><path d="m490.97064 328.57457-80-32a8.004 8.004 0 0 0 -6.54883.27246l-30.311 15.15527h-92.22269l-30.311-15.15527a7.99806 7.99806 0 0 0 -6.54883-.27246l-80 32a8 8 0 0 0 -2.68554 13.08447l11.92285 11.92285-5.42139 10.84277a7.99969 7.99969 0 0 0 3.57764 10.73291l9.79394 4.897-5.80566 17.418a7.9992 7.9992 0 0 0 4.01172 9.68505l13.03613 6.51807 6.95215 20.85645a8.0001 8.0001 0 0 0 7.58935 5.47021h11.05567l5.78906 11.57764a7.99924 7.99924 0 0 0 7.15527 4.42236h19.05567l5.78906 11.57764a7.99924 7.99924 0 0 0 7.15527 4.42236h11.05567l5.78906 11.57764a7.99883 7.99883 0 0 0 9.68506 4.01172l19.30957-6.43653 12.50387 12.50382a7.99944 7.99944 0 0 0 11.31347 0l12.50391-12.50391 19.30957 6.43653a8.00166 8.00166 0 0 0 9.68506-4.01172l5.78906-11.57764h11.05566a7.99924 7.99924 0 0 0 7.15528-4.42236l5.78906-11.57764h19.05566a7.99924 7.99924 0 0 0 7.15528-4.42236l5.78906-11.57764h11.05566a8.00011 8.00011 0 0 0 7.58936-5.47021l6.95215-20.85645 13.03613-6.51807a7.9992 7.9992 0 0 0 4.01172-9.68505l-5.80566-17.418 9.79394-4.897a7.99969 7.99969 0 0 0 3.57764-10.73291l-5.42139-10.84277 11.92285-11.9228a8 8 0 0 0 -2.68554-13.08447zm-82.60694-15.81006 36.13336 14.45312-10.54742 26.36866-17.9502 5.98339-39.24688-13.08227 5.97253-20.90381zm-35.20923 96.28027-19.33386-32.22314a50.874 50.874 0 0 0 16.35248-15.66211l39.13055 13.04347 5.83594 23.34521-17.59424 17.59424zm-90.31006 0-24.39086 6.09766-17.59424-17.59424 5.83593-23.34521 39.13056-13.04346a50.874 50.874 0 0 0 16.35248 15.66211zm45.155-41.04248a34.569 34.569 0 0 1 -33.0986-24.9663l-4.29535-15.03369h74.788l-4.29538 15.03369a34.569 34.569 0 0 1 -33.09864 24.9663zm-10.76135 14.81824c.91321.20166 1.83319.381 2.76135.53174v24.65a8 8 0 0 0 16 0v-24.65c.92817-.15076 1.84815-.33008 2.76136-.53174l19.7738 32.95666-10.81641 16.2251h-39.4375l-10.8164-16.2251zm-69.6029-70.056 25.63864 12.81906 5.97253 20.90381-39.24689 13.08227-17.95019-5.98339-10.54743-26.36866zm217.209 42.81543 4.42236 8.84472-8.84472 4.42237a7.99921 7.99921 0 0 0 -4.01172 9.68506l5.80566 17.418-9.79394 4.897a7.99887 7.99887 0 0 0 -4.01172 4.62549l-6.17676 18.52978h-10.23388a7.99926 7.99926 0 0 0 -7.15527 4.42236l-5.78906 11.57764h-19.05567a7.99926 7.99926 0 0 0 -7.15527 4.42236l-5.78906 11.57764h-11.05567a7.99926 7.99926 0 0 0 -7.15527 4.42236l-4.897 9.79395-17.418-5.80566a7.99969 7.99969 0 0 0 -8.18652 1.93261l-10.34327 10.34278-10.34326-10.34278a7.99892 7.99892 0 0 0 -8.18652-1.93261l-17.418 5.80566-4.897-9.79395a7.99926 7.99926 0 0 0 -7.15528-4.42236h-11.05554l-5.78906-11.57764a7.99926 7.99926 0 0 0 -7.15528-4.42236h-19.05566l-5.78906-11.57764a7.99926 7.99926 0 0 0 -7.15528-4.42236h-10.23388l-6.17676-18.52978a7.99887 7.99887 0 0 0 -4.01172-4.62549l-9.79394-4.897 5.80566-17.418a7.99921 7.99921 0 0 0 -4.01172-9.68506l-8.84473-4.42237 4.42237-8.84472a7.9993 7.9993 0 0 0 -1.49854-9.23438l-7.4209-7.42138 14.411-5.76441 11.92548 29.81372a7.99942 7.99942 0 0 0 4.898 4.61817l16.9718 5.65722-6.20325 24.813a7.99891 7.99891 0 0 0 2.1045 7.59717l24 24a8.0005 8.0005 0 0 0 7.59716 2.10449l26.5307-6.63269 12.87262 19.309a7.99943 7.99943 0 0 0 6.65625 3.5625h48a7.9994 7.9994 0 0 0 6.65625-3.5625l12.87262-19.309 26.5307 6.63269a8.00051 8.00051 0 0 0 7.59717-2.10449l24-24a7.99888 7.99888 0 0 0 2.10449-7.59717l-6.20324-24.813 16.9718-5.65722a7.99942 7.99942 0 0 0 4.898-4.61817l11.92547-29.81372 14.411 5.76441-7.42089 7.42138a7.9993 7.9993 0 0 0 -1.49874 9.23435z"/><path d="m269.5053 375.183-11.16259 11.16259a7.99983 7.99983 0 1 0 11.31347 11.31341l11.1626-11.1626a7.99983 7.99983 0 1 0 -11.31348-11.3134z"/><path d="m239.99944 344.0023h16a8 8 0 0 0 0-16h-16a8 8 0 1 0 0 16z"/><path d="m397.65618 386.34556-11.1626-11.16256a7.99983 7.99983 0 0 0 -11.31347 11.31347l11.1626 11.1626a7.99983 7.99983 0 1 0 11.31347-11.31348z"/><path d="m399.99944 344.0023h16a8 8 0 0 0 0-16h-16a8 8 0 1 0 0 16z"/><path d="m84.686 416.002h22.627v16h-22.627z" transform="matrix(.707 -.707 .707 .707 -271.697 192.069)"/><path d="m116 447.058h16v17.889h-16z" transform="matrix(.894 -.447 .447 .894 -190.839 103.596)"/><path d="m144 420.689h16v22.627h-16z" transform="matrix(.707 -.707 .707 .707 -260.952 234.01)"/><path d="m52 383.058h16v17.889h-16z" transform="matrix(.894 -.447 .447 .894 -168.974 68.217)"/><path d="m87.055 372.002h17.889v16h-17.889z" transform="matrix(.894 -.447 .447 .894 -159.807 83.05)"/><path d="m124 383.058h16v17.889h-16z" transform="matrix(.894 -.447 .447 .894 -161.373 100.417)"/><path d="m128 348.689h16v22.627h-16z" transform="matrix(.707 -.707 .707 .707 -214.727 201.608)"/><path d="m127.055 316.002h17.889v16h-17.889z" transform="matrix(.894 -.447 .447 .894 -130.54 95.027)"/><path d="m84 327.058h16v17.889h-16z" transform="matrix(.894 -.447 .447 .894 -140.552 76.616)"/><path d="m59.055 344.002h17.889v16h-17.889z" transform="matrix(.447 -.894 .894 .447 -277.251 255.403)"/><path d="m44 311.058h16v17.889h-16z" transform="matrix(.894 -.447 .447 .894 -137.62 57.038)"/><path d="m71.055 284.002h17.889v16h-17.889z" transform="matrix(.894 -.447 .447 .894 -122.142 66.604)"/><path d="m103.999 280.002h16v16h-16z"/><path d="m79.055 220.002h17.889v16h-17.889z" transform="matrix(.894 -.447 .447 .894 -92.675 63.425)"/><path d="m111.999 216.002h16v16h-16z"/><path d="m144 275.058h16v17.889h-16z" transform="matrix(.447 -.894 .894 .447 -169.996 292.945)"/><path d="m172.686 288.002h22.627v16h-22.627z" transform="matrix(.707 -.707 .707 .707 -155.413 216.804)"/><path d="m188 207.058h16v17.889h-16z" transform="matrix(.894 -.447 .447 .894 -75.907 110.458)"/><path d="m212.686 232.002h22.627v16h-22.627z" transform="matrix(.707 -.707 .707 .707 -104.099 228.687)"/><path d="m236 255.058h16v17.889h-16z" transform="matrix(.894 -.447 .447 .894 -92.306 136.991)"/><path d="m135.055 244.002h17.889v16h-17.889z" transform="matrix(.894 -.447 .447 .894 -97.496 91.003)"/><path d="m172 255.058h16v17.889h-16z" transform="matrix(.894 -.447 .447 .894 -99.062 108.37)"/><path d="m140.686 200.002h22.627v16h-22.627z" transform="matrix(.707 -.707 .707 .707 -102.56 168.402)"/><path d="m164 223.058h16v17.889h-16z" transform="matrix(.894 -.447 .447 .894 -85.596 101.414)"/><path d="m16.84417 355.57994 6.51807 13.03613-6.95215 20.85645a7.9992 7.9992 0 0 0 4.01172 9.68505l8.84472 4.42237-4.42236 8.84472a7.99969 7.99969 0 0 0 3.57764 10.73291l11.57763 5.78907v11.05566a7.99925 7.99925 0 0 0 4.42237 7.15527l11.57763 5.78907v11.05566a7.99977 7.99977 0 0 0 8 8h11.05567l5.78906 11.57764a7.999 7.999 0 0 0 10.73291 3.57763l10.84277-5.42138 11.92286 11.92281a8 8 0 0 0 9.23437 1.49853l12.42236-6.21093 12.42237 6.21093a7.99365 7.99365 0 0 0 10.73291-3.57763l3.03613-6.07227 8.15186 8.15137a8 8 0 0 0 11.31347 0l8.15186-8.15137 3.03613 6.07227a7.99995 7.99995 0 0 0 12.812 2.0791l11.92283-11.92281 10.84278 5.42138 7.15527-14.31054-16-8a7.9994 7.9994 0 0 0 -9.23437 1.49853l-8.15186 8.15137-3.03613-6.07227a8 8 0 0 0 -12.812-2.0791l-10.34327 10.34278-10.34326-10.34278a8 8 0 0 0 -12.812 2.0791l-4.42236 8.84473-8.84473-4.42236a8.00051 8.00051 0 0 0 -7.15527 0l-10.8428 5.42138-11.92285-11.92285a7.99928 7.99928 0 0 0 -9.23437-1.49853l-8.84473 4.42236-4.42236-8.84473a7.99926 7.99926 0 0 0 -7.15528-4.42236h-8v-8a7.99924 7.99924 0 0 0 -4.42236-7.15527l-11.57761-5.78903v-11.0557a7.99924 7.99924 0 0 0 -4.42236-7.15527l-8.84473-4.42237 4.42237-8.84472a7.99969 7.99969 0 0 0 -3.57764-10.73294l-9.79394-4.897 5.80566-17.418a7.99834 7.99834 0 0 0 -.43408-6.10743l-6.21094-12.42227 6.21094-12.42236a7.99749 7.99749 0 0 0 0-7.15528l-6.21094-12.42236 6.21094-12.42236a7.99749 7.99749 0 0 0 0-7.15528l-5.42139-10.84277 11.92285-11.92289a7.9993 7.9993 0 0 0 1.49854-9.23438l-4.42237-8.84472 8.84473-4.42237a7.9992 7.9992 0 0 0 4.01172-9.685l-5.80566-17.418 9.79394-4.897a7.99669 7.99669 0 0 0 3.57764-3.57763l5.78906-11.57764h11.05566a7.99977 7.99977 0 0 0 8-8v-16h8a7.99875 7.99875 0 0 0 5.65674-2.34326l11.92282-11.92281 10.84278 5.42138a8.00051 8.00051 0 0 0 7.15527 0l12.42236-6.21093 12.42237 6.21093a8.00051 8.00051 0 0 0 7.15527 0l10.84277-5.42138 11.92289 11.92281a7.99874 7.99874 0 0 0 5.65673 2.34326h24v-16h-10.89618q3.73261-3.86278 7.13453-8h19.76165v8a7.99977 7.99977 0 0 0 8 8h8v8a7.99925 7.99925 0 0 0 4.42237 7.15527l9.79394 4.89747-5.80566 17.41748a7.9992 7.9992 0 0 0 4.01172 9.685l9.79394 4.89747-5.80566 17.41748a7.9992 7.9992 0 0 0 4.01172 9.685l8.84472 4.42237-4.42236 8.84472a7.99917 7.99917 0 0 0 1.49854 9.23438l16 16 11.31347-11.31348-11.92285-11.92285 5.42139-10.84277a7.99969 7.99969 0 0 0 -3.57764-10.73291l-9.79394-4.89746 5.80566-17.41748a7.99921 7.99921 0 0 0 -4.01172-9.68506l-9.79394-4.89746 5.80566-17.41748a7.99921 7.99921 0 0 0 -4.01172-9.68506l-11.57764-5.78889v-11.0557a7.99977 7.99977 0 0 0 -8-8h-8v-8a7.99977 7.99977 0 0 0 -8-8h-16.419a136.38621 136.38621 0 0 0 12.65729-27.41748l10.64453-31.93359a21.76536 21.76536 0 0 0 -20.64893-28.64893 22.16988 22.16988 0 0 0 -21.05957 15.1792l-6.01221 18.03711a118.16335 118.16335 0 0 1 -50.03888 63.142l-16.17913-32.35831h3.0559a56.06353 56.06353 0 0 0 56-56v-40a7.99977 7.99977 0 0 0 -8-8h-16a56.08969 56.08969 0 0 0 -54.92352 45.08179 48.25556 48.25556 0 0 0 -39.72392-21.08179h-41.35256a8.00046 8.00046 0 0 0 -7.49072 10.80908l13.75171 36.67062a48.016 48.016 0 0 0 -22.261 40.52026v16a7.99977 7.99977 0 0 0 8 8h40a48.1733 48.1733 0 0 0 45.259-32h5.79687l18.21112 36.42224-5.267 2.63343-12.42234-6.21093a7.99942 7.99942 0 0 0 -9.23437 1.49853l-13.65723 13.65677h-12.686a7.99977 7.99977 0 0 0 -8 8v16h-8a7.99926 7.99926 0 0 0 -7.15527 4.42236l-6.80762 13.61475-13.61478 6.80759a7.99921 7.99921 0 0 0 -4.01172 9.68506l5.80566 17.418-9.79394 4.897a7.99969 7.99969 0 0 0 -3.57764 10.73291l5.42139 10.84277-11.92285 11.92282a7.9993 7.9993 0 0 0 -1.49854 9.23438l6.21094 12.42236-6.21094 12.42236a7.99749 7.99749 0 0 0 0 7.15528l6.21094 12.42236-6.21094 12.42236a7.99749 7.99749 0 0 0 0 7.15528zm197.49609-261.30176 6.01221-18.03711a6.19086 6.19086 0 0 1 5.88086-4.23877 5.766 5.766 0 0 1 5.47022 7.58936l-10.64455 31.93359a119.42907 119.42907 0 0 1 -32.21325 50.00964l-7.18958-7.18933a7.98082 7.98082 0 0 0 -5.37207-2.32385 134.184 134.184 0 0 0 38.05616-57.74353zm-46.34082-62.27588h8v32a40.0471 40.0471 0 0 1 -36.52618 39.8396l9.21222-9.21216a65.50823 65.50823 0 0 0 19.314-46.62744h-16a49.6147 49.6147 0 0 1 -14.62744 35.314l-9.37256 9.37255v-20.68655a40.04521 40.04521 0 0 1 39.99996-40zm-94.64746 24a32.16185 32.16185 0 0 1 27.43994 15.53613l11.20752 18.67933v6.23913l-43.35009-30.96435-9.29981 13.01953 35.68634 25.49023h-11.31622a32.1479 32.1479 0 0 1 -29.9624-20.76416l-10.21387-27.23584zm-9.35254 80h-32v-8a32.00394 32.00394 0 0 1 13.95514-26.41162 48.24652 48.24652 0 0 0 37.76508 18.41162h7.98871a32.12178 32.12178 0 0 1 -27.70893 16z"/></svg>