<svg height="512" viewBox="0 0 128 128" width="512" xmlns="http://www.w3.org/2000/svg"><g><path d="m121.5 31.5a21.559 21.559 0 0 1 -1.58 8.15 23.484 23.484 0 0 1 -1.51 3.12c-3.04 5.24-8.42 10.27-16.66 14.98-18.04 10.93-26.44 24.67-30.31 35.73-.43 1.22-.8 2.4-1.12 3.54a50.821 50.821 0 0 0 -2.07 15.36c.25 5.24-1.22 9.12-13.72 9.12-16 0-16.78-3.69-18.63-11.5-.91-3.85-2.58-13.18-4.33-23.7-22.82-5.3-25.8-10.87-24.94-18.49.37-3.35 2.65-5.62 6.43-6.56a16.908 16.908 0 0 1 3.19-.45 34.78 34.78 0 0 1 11.58 1.71c-.2-1.33-.39-2.63-.56-3.88-.18-1.2-.34-2.35-.49-3.45-.55-4.06-.97-7.4-1.16-9.56-1-11.24 2.88-21.43 11.13-21.43 10.19 0 12.3 5.05 11.18 13.28-.07.55-.16 1.12-.26 1.7s-.19 1.18-.26 1.78c-1.09 8.94 1.45 18.34 6.84 17.67 3.4-.41 5.31-3.96 7.03-10.82h.01c.26-1.07.52-2.21.78-3.44.91-4.23 1.82-9.43 2.93-15.61 3.5-19.5 9-22.25 20.58-22.25s9.54 17.69 4.17 30.75c0 0 8.37-8.5 12.5-12.37 7.63-6.88 19.25-2.71 19.25 6.62z" fill="#e2a76f"/><g fill="#c08e5e"><path d="m39.793 100.448a1.753 1.753 0 0 1 -1.721-1.439c-.292-1.624-.6-3.387-.93-5.271a1.75 1.75 0 1 1 3.449-.6c.325 1.874.635 3.63.927 5.247a1.752 1.752 0 0 1 -1.413 2.033 1.844 1.844 0 0 1 -.312.03z"/><path d="m71.44 93.48c-.43 1.22-.8 2.4-1.12 3.54a19.652 19.652 0 0 1 -3.52.31 23.8 23.8 0 0 1 -11.06-2.82 1.75 1.75 0 1 1 1.77-3.02c.06.03 6.15 3.5 12.99 1.93a1.669 1.669 0 0 1 .94.06z"/><path d="m73 76.417a1.851 1.851 0 0 1 -.321-.029 21.87 21.87 0 0 1 -8.779-4.028 1.75 1.75 0 1 1 2.2-2.72 18.557 18.557 0 0 0 7.221 3.307 1.75 1.75 0 0 1 -.32 3.47z"/><path d="m87.7 64.406a1.745 1.745 0 0 1 -.525-.081c-.23-.073-5.659-1.8-8.887-4.492a1.749 1.749 0 1 1 2.24-2.688c2.694 2.245 7.649 3.826 7.7 3.842a1.75 1.75 0 0 1 -.527 3.419z"/><path d="m74.57 48.72a1.75 1.75 0 0 1 -1.74 1.53 1.477 1.477 0 0 1 -.21-.01c-.82-.11-7.92-1.02-11.33-2.44.26-1.07.52-2.21.78-3.44a2.415 2.415 0 0 1 .35.12c2.35 1.08 8.47 2.02 10.63 2.28a1.755 1.755 0 0 1 1.52 1.96z"/><path d="m83.535 27.692c-.062 0-.125 0-.188-.009a40.879 40.879 0 0 1 -8.428-1.852 1.75 1.75 0 0 1 1.228-3.277 37.99 37.99 0 0 0 7.573 1.646 1.75 1.75 0 0 1 -.185 3.489z"/><path d="m26.286 78.423a1.753 1.753 0 0 1 -1.734-2c.279-1.958.6-5.6.266-7.038a1.75 1.75 0 1 1 3.411-.787c.586 2.54-.129 7.736-.212 8.32a1.751 1.751 0 0 1 -1.731 1.505z"/><path d="m16.48 66.6a1.756 1.756 0 0 1 -1.73 1.46c-.09 0-.19-.01-.29-.02a1.759 1.759 0 0 1 -1.44-2.01 11.269 11.269 0 0 0 .06-3.83 1.709 1.709 0 0 1 -.02-.95 16.908 16.908 0 0 1 3.19-.45 1.558 1.558 0 0 1 .17.37 14.389 14.389 0 0 1 .06 5.43z"/><path d="m41.02 59.13a1.752 1.752 0 0 1 -1.75 1.75c-.31 0-7.25-.03-12-2.25-.18-1.2-.34-2.35-.49-3.45a1.765 1.765 0 0 1 1.52.06c3.97 2.1 10.9 2.14 10.97 2.14a1.746 1.746 0 0 1 1.75 1.75z"/><path d="m47.93 37.47c-.07.55-.16 1.12-.26 1.7s-.19 1.18-.26 1.78a.292.292 0 0 1 -.09-.02c-.58-.14-5.67-1.49-7.91-3.4a1.748 1.748 0 1 1 2.27-2.66c1.18 1 4.35 2.1 6.25 2.6z"/><path d="m55.705 84.083c-.438 0-10.8-.065-16.932-4.5a1.75 1.75 0 1 1 2.048-2.838c5.213 3.767 14.793 3.835 14.889 3.835a1.75 1.75 0 0 1 0 3.5z"/><path d="m54.538 111.174c-3.906 0-10.717-.592-13.144-1.386a1.75 1.75 0 1 1 1.087-3.326c2.942.961 12.42 1.4 13.692 1.162a1.712 1.712 0 0 1 2.158 1.151 1.783 1.783 0 0 1 -1.179 2.206 11.247 11.247 0 0 1 -2.614.193z"/><path d="m119.92 39.65a23.484 23.484 0 0 1 -1.51 3.12c-.5-.16-5.47-1.65-8.27-4.19a1.752 1.752 0 1 1 2.35-2.6c1.9 1.73 5.65 3.06 6.93 3.43a1.541 1.541 0 0 1 .5.24z"/><path d="m78.941 40.214a14.865 14.865 0 0 1 -5.128-.781 1.75 1.75 0 0 1 1.29-3.254 14.007 14.007 0 0 0 5.012.5 1.75 1.75 0 0 1 .272 3.489c-.144.008-.687.046-1.446.046z"/><path d="m105.881 49.035a1.738 1.738 0 0 1 -.485-.069c-.219-.063-5.422-1.58-8.315-4.2a1.75 1.75 0 1 1 2.348-2.6c1.907 1.725 5.652 3.06 6.934 3.429a1.75 1.75 0 0 1 -.482 3.432z"/></g></g></svg>