<svg height="512pt" viewBox="0 0 512 512" width="512pt" xmlns="http://www.w3.org/2000/svg"><path d="m182.144531 78.222656-29.414062-5.859375c8.332031-41.925781 45.464843-72.363281 88.269531-72.363281v30c-28.535156 0-53.289062 20.273438-58.855469 48.222656zm0 0" fill="#99503d"/><path d="m166 30.300781c-13.5-18.300781-35.398438-30.300781-60-30.300781h-75v15c0 41.398438 33.601562 75 75 75h75v-15c0-16.800781-5.398438-32.402344-15-44.699219zm0 0" fill="#90e36a"/><path d="m181 75v15h-15v-59.699219c9.601562 12.296875 15 27.898438 15 44.699219zm0 0" fill="#70da40"/><path d="m331 287c0 21.898438-3 43.800781-9.300781 64.199219l-79.5 108.898437c-10.199219 6.300782-20.699219 11.101563-31.800781 14.703125-3.898438 21.296875-22.199219 37.199219-44.398438 37.199219s-40.5-16.199219-44.398438-37.199219c-70.503906-23.101562-121.601562-100.203125-121.601562-187.800781 0-87.601562 51.097656-166.699219 121.601562-189.800781 3.898438-21 22.199219-37.199219 44.398438-37.199219s40.5 16.199219 44.398438 37.199219c70.503906 23.101562 120.601562 102.199219 120.601562 189.800781zm0 0" fill="#ffd400"/><path d="m331 287c0 21.898438-3 43.800781-9.300781 64.199219l-79.5 108.898437c-10.199219 6.300782-20.699219 11.101563-31.800781 14.703125-3.898438 21.296875-22.199219 37.199219-44.398438 37.199219v-452c22.199219 0 40.5 16.199219 44.398438 37.199219 70.503906 23.101562 120.601562 102.199219 120.601562 189.800781zm0 0" fill="#fdbf00"/><path d="m512 332v15c0 90.898438-75.097656 165-166 165s-165-74.101562-165-165v-15h60l30 15h150l30-15zm0 0" fill="#ffd400"/><path d="m512 332v15c0 90.898438-75.097656 165-166 165v-165h75l30-15zm0 0" fill="#fdbf00"/><path d="m451 332v15c0 26.398438-10.199219 50.097656-26.101562 68.699219-6.597657 7.5-14.097657 14.398437-22.796876 19.800781-16.199218 10.199219-35.402343 16.5-56.101562 16.5s-39.902344-6.300781-56.101562-16.5c-8.699219-5.402344-16.199219-12.300781-22.796876-19.800781-15.902343-18.601563-26.101562-42.300781-26.101562-68.699219v-15h84.902344l20.097656 15 20.097656-15zm0 0" fill="#ffe470"/><path d="m451 332v15c0 26.398438-10.199219 50.097656-26.101562 68.699219-6.597657 7.5-14.097657 14.398437-22.796876 19.800781-16.199218 10.199219-35.402343 16.5-56.101562 16.5v-105l20.097656-15zm0 0" fill="#ffd400"/><path d="m442 440-24 18-15.898438-22.5-56.101562-79.800781-56.101562 79.800781-15.898438 22.5-24-18 17.101562-24.300781 58.800782-83.699219h40.195312l58.800782 83.699219zm0 0" fill="#ffd400"/><path d="m442 440-24 18-15.898438-22.5-56.101562-79.800781v-23.699219h20.097656l58.800782 83.699219zm0 0" fill="#fdbf00"/></svg>