<svg height="512pt" viewBox="0 -12 512.00084 512" width="512pt" xmlns="http://www.w3.org/2000/svg" xmlns:xlink="http://www.w3.org/1999/xlink"><linearGradient id="a"><stop offset="0" stop-color="#dab49d"/><stop offset=".3389" stop-color="#d9b29a"/><stop offset=".5402" stop-color="#d6ad92"/><stop offset=".7054" stop-color="#d1a484"/><stop offset=".8511" stop-color="#ca9870"/><stop offset=".9827" stop-color="#c18856"/><stop offset="1" stop-color="#c08552"/></linearGradient><radialGradient id="b" cx="252.9554" cy="305.9141" gradientTransform="matrix(.996693 -.119969 .119969 .996693 -49.509892 -91.632721)" gradientUnits="userSpaceOnUse" r="348.6223" xlink:href="#a"/><linearGradient id="c"><stop offset="0" stop-color="#c08552"/><stop offset=".3165" stop-color="#c18755" stop-opacity=".682353"/><stop offset=".5223" stop-color="#c48c5d" stop-opacity=".478431"/><stop offset=".6966" stop-color="#c9956c" stop-opacity=".301961"/><stop offset=".8524" stop-color="#d0a381" stop-opacity=".14902"/><stop offset=".996" stop-color="#dab39c" stop-opacity=".003922"/><stop offset="1" stop-color="#dab49d" stop-opacity="0"/></linearGradient><radialGradient id="d" cx="296.0789" cy="243.4008" gradientTransform="matrix(.996693 -.119969 .119969 .996693 -49.509892 -91.632721)" gradientUnits="userSpaceOnUse" r="154.6598" xlink:href="#c"/><linearGradient id="e" gradientUnits="userSpaceOnUse" x1="426.7940523096" x2="285.5196386646" y1="328.62515755" y2="255.1297345974"><stop offset="0" stop-color="#dab49d" stop-opacity="0"/><stop offset=".1682" stop-color="#d5ab8e" stop-opacity=".168627"/><stop offset=".7198" stop-color="#c69063" stop-opacity=".721569"/><stop offset="1" stop-color="#c08552"/></linearGradient><radialGradient id="f" cx="-88.5155" cy="616.083" gradientTransform="matrix(.822011 -.576351 .576351 .822011 -301.030294 -467.242647)" gradientUnits="userSpaceOnUse" r="418.3644" xlink:href="#a"/><radialGradient id="g" cx="291.6237856012" cy="-83.9588754184" gradientUnits="userSpaceOnUse" r="245.6653353632" xlink:href="#c"/><path d="m505.515625 250.746094c-21.769531-114.175782-169.324219-149.597656-239.246094-56.746094-.730469.972656-1.445312 1.941406-2.148437 2.914062-33.613282 46.699219 14.316406 133.058594 12.183594 186.199219-2.128907 53.144531 53.601562 133.445313 134.242187 94.734375 80.644531-38.714844 114.726563-95.707031 96.785156-216.382812-.542969-3.644532-1.148437-7.214844-1.816406-10.71875zm0 0" fill="url(#b)"/><path d="m266.269531 194c-.730469.972656-1.445312 1.941406-2.148437 2.914062-25.953125 36.058594-3.300782 95.753907 7.394531 145.550782 13.246094 3.015625 27.066406 3.847656 41.101563 2.15625 73.371093-8.832032 124.785156-83.003906 114.832031-165.664063-1.199219-9.964843-3.246094-19.597656-6.027344-28.816406-52.195313-19.957031-115.902344-8.261719-155.152344 43.859375zm0 0" fill="url(#d)"/><path d="m510.292969 285.53125-144.425781-144.425781c-36.960938 1.636719-73.632813 18.414062-99.597657 52.894531-.730469.972656-1.445312 1.941406-2.148437 2.914062-24.539063 34.09375-5.625 89.316407 5.550781 137.328126l142.710937 142.710937c73.804688-36.007813 107.875-87.902344 97.910157-191.421875zm0 0" fill="url(#e)"/><path d="m94.464844 69.664062s122.675781-105.703124 193.117187-56.699218c70.441407 49.003906 107.015625 115.195312 56.042969 196.859375-50.976562 81.664062-57.949219 67.164062-80.523438 154.644531-14.125 54.734375-91.734374 123.582031-189.472656 54.359375-97.738281-69.222656-105.355468-234.4375 20.835938-349.164063zm0 0" fill="url(#f)"/><path d="m287.582031 12.964844c-70.441406-49.003906-193.117187 56.699218-193.117187 56.699218-8.75 7.953126-16.832032 16.15625-24.308594 24.546876 2.570312 67.664062 59.65625 121.75 129.714844 121.75 71.699218 0 129.820312-56.640626 129.820312-126.511719 0-18.5-4.078125-36.070313-11.398437-51.910157-9.246094-8.617187-19.550781-16.8125-30.710938-24.574218zm0 0" fill="url(#g)"/></svg>