<?xml version="1.0" encoding="iso-8859-1"?>
<!-- Generator: Adobe Illustrator 21.0.0, SVG Export Plug-In . SVG Version: 6.00 Build 0)  -->
<svg version="1.1" id="Capa_1" xmlns="http://www.w3.org/2000/svg" xmlns:xlink="http://www.w3.org/1999/xlink" x="0px" y="0px"
	 viewBox="0 0 512 512" style="enable-background:new 0 0 512 512;" xml:space="preserve">
<path style="fill:#B38A65;" d="M324.595,53.417l-44.255-29.77c-65.172,54-50.672,126-50.672,126l52.819-2.283
	C273.667,104.814,324.595,53.417,324.595,53.417z"/>
<g>
	<path style="fill:#FFAA20;" d="M485.599,182.389c-18.664-36.732-44.653-56.961-73.182-56.961
		c-28.527,0-54.517,20.229-73.181,56.961c-17.025,33.506-26.401,77.721-26.401,124.501c0,46.779,9.376,90.995,26.401,124.5
		c18.664,36.733,44.653,56.961,73.181,56.961s54.518-20.228,73.182-56.96C502.624,397.884,512,353.669,512,306.888
		C512,260.108,502.624,215.894,485.599,182.389z"/>
	<path style="fill:#FFAA20;" d="M99.583,125.428c-28.528,0-54.518,20.229-73.182,56.961C9.376,215.894,0,260.108,0,306.888
		s9.376,90.995,26.401,124.501c18.664,36.732,44.653,56.96,73.182,56.96c28.527,0,54.517-20.228,73.181-56.961
		c17.025-33.505,26.401-77.721,26.401-124.5c0-46.78-9.376-90.995-26.401-124.501C154.1,145.657,128.11,125.428,99.583,125.428z"/>
</g>
<path style="fill:#FF8900;" d="M409.815,182.389c-18.664-36.732-44.653-56.961-73.182-56.961c-28.528,0-54.518,20.229-73.182,56.961
	c-2.675,5.264-5.161,10.793-7.451,16.555c-2.291-5.762-4.776-11.291-7.451-16.555c-18.664-36.732-44.653-56.961-73.182-56.961
	s-54.518,20.229-73.182,56.961c-17.024,33.505-26.4,77.721-26.4,124.501s9.376,90.995,26.4,124.5
	c18.664,36.733,44.653,56.961,73.182,56.961s54.518-20.228,73.182-56.96c2.675-5.264,5.161-10.794,7.451-16.555
	c2.291,5.762,4.776,11.291,7.451,16.555c18.664,36.732,44.653,56.96,73.182,56.96c28.528,0,54.518-20.228,73.182-56.961
	c17.024-33.505,26.4-77.72,26.4-124.5C436.215,260.108,426.839,215.894,409.815,182.389z"/>
<path style="fill:#FFAA20;" d="M355.58,306.893c0,46.78-9.37,90.99-26.4,124.5c-18.66,36.73-44.65,56.96-73.18,56.96
	s-54.52-20.23-73.18-56.96c-17.03-33.51-26.4-77.72-26.4-124.5c0-46.79,9.37-91,26.4-124.51c18.66-36.73,44.65-56.96,73.18-56.96
	s54.52,20.23,73.18,56.96C346.21,215.894,355.58,260.103,355.58,306.893z"/>
<path style="fill:#FF9A00;" d="M355.58,306.893c0,46.78-9.37,90.99-26.4,124.5c-18.66,36.73-44.65,56.96-73.18,56.96v-362.93
	c28.53,0,54.52,20.23,73.18,56.96C346.21,215.894,355.58,260.103,355.58,306.893z"/>
<g>
</g>
<g>
</g>
<g>
</g>
<g>
</g>
<g>
</g>
<g>
</g>
<g>
</g>
<g>
</g>
<g>
</g>
<g>
</g>
<g>
</g>
<g>
</g>
<g>
</g>
<g>
</g>
<g>
</g>
</svg>
